<?xml version="1.0" encoding="UTF-8" standalone="no"?><!DOCTYPE svg PUBLIC "-//W3C//DTD SVG 1.1//EN" "http://www.w3.org/Graphics/SVG/1.1/DTD/svg11.dtd"><svg width="100%" height="100%" viewBox="0 0 1150 1309" version="1.1" xmlns="http://www.w3.org/2000/svg" xmlns:xlink="http://www.w3.org/1999/xlink" xml:space="preserve" xmlns:serif="http://www.serif.com/" style="fill-rule:evenodd;clip-rule:evenodd;stroke-linejoin:round;stroke-miterlimit:2;"><g id="Background"><path d="M487.642,6.781c-3.675,35.511 -2.202,37.968 -2.079,203.636c0.062,83.403 1.027,83.324 0.932,166.66c-0.013,11.425 -2.653,20.256 3.047,20.154c3.997,-0.071 2.509,-2.488 26.232,-27.347c54.213,-56.81 54.885,-56.13 59.462,-61.195c9.002,-9.962 100.128,-101.71 162.535,-158.597c1.228,-1.119 1.09,-1.239 13.928,-15.403c2.564,-2.828 3.304,-3.837 5.931,-1.114c2.25,2.331 2.388,2.667 1.12,5.664c-0.08,0.188 -3.209,5.51 -6.039,13.044c-9.677,25.758 -7.831,26.368 -111.161,325.492c-0.688,1.991 -0.584,1.935 -8.488,24.931c-2.145,6.242 -2.694,5.965 -4.743,12.173c-0.242,0.732 -3.355,10.164 6.796,6.824c1.063,-0.35 0.746,-1.228 50.855,-18.015c259.71,-87.009 285.265,-89.832 308.305,-99.845c0.626,-0.272 6.951,-3.021 7.983,-2.999c5.285,0.112 4.284,4.925 4.172,5.463c-0.577,2.774 -2.669,1.17 -24.864,25.23c-111.666,121.052 -112.158,120.511 -219.603,230.389c-11.502,11.762 -11.788,11.363 -23.379,22.963c-0.431,0.432 -4.397,4.401 1.495,7.482c1.445,0.755 1.649,-0.725 20.318,1.542c25.287,3.07 25.372,1.947 316.592,34.003c40.964,4.509 45.916,4.569 49.927,4.617c6.339,0.076 6.443,-0.708 10.063,0.865c4.821,2.094 7.464,4.06 2.801,6.356c-6.65,3.275 -12.823,3.681 -28.655,9.934c-99.695,39.378 -176.545,66.214 -284.509,100.962c-33.708,10.849 -34.624,8.9 -36.034,10.726c-0.6,0.777 -0.419,5.302 0.242,6.031c1.675,1.846 2.699,-0.18 28.742,12.028c1.148,0.538 2.354,0.945 3.518,1.449c15.064,6.52 14.641,7.399 186.696,85.114c89.273,40.323 88.97,40.94 121.615,52.537c3.473,1.234 4.638,0.559 4.979,4.193c0.62,6.599 -2.731,4.852 -9.303,4.136c-30.14,-3.282 -56.397,-1.319 -137.412,-5.19c-14.349,-0.686 -93.612,-4.473 -179.134,-12.39c-22.705,-2.102 -27.518,-6.419 -26.983,1.273c0.214,3.069 6.1,4.621 21.959,17.478c15.853,12.851 113.546,92.047 200.134,158.181c15.035,11.484 26.158,14.811 26.368,20.08c0.236,5.92 -7.964,2.594 -8.627,2.325c-18.907,-7.67 -18.86,-7.662 -38.248,-13.982c-18.849,-6.144 -163.972,-53.451 -233.292,-83.593c-7.061,-3.07 -16.226,-8.343 -16.493,-8.436c-0.474,-0.166 -5.297,-1.851 -5.221,3.494c0.065,4.594 3.838,2.428 36.427,44.405c2.587,3.333 2.929,2.943 33.835,40.454c47.151,57.227 64.591,76.798 78.122,89.385c0.628,0.584 6.274,5.836 5.822,8.996c-0.131,0.914 -1.712,0.778 -2.38,1.414c-0.399,0.38 -0.137,1.562 -0.686,1.506c-5.454,-0.562 -3.616,-4.309 -58.772,-35.263c-24.998,-14.029 -99.172,-60.116 -111.422,-68.421c-9.033,-6.125 -39.151,-24.793 -49.842,-34.062c-10.487,-9.092 -11.712,-3.287 -11.866,-2.332c-0.118,0.734 14.955,25.532 30.184,54.947c38.279,73.935 42.719,75.715 47.285,82.578c1.248,1.876 4.041,7.946 3.993,8.148c-1.289,5.44 -3.576,3.805 -8.183,0.632c-2.928,-2.017 -1.877,-3.234 -33.339,-29.39c-64.364,-53.506 -111.682,-98.584 -118.344,-106.627c-4.311,-5.205 -3.88,-7.214 -10.601,-6.305c-2.735,0.37 -2.07,1.384 -1.38,4.003c3.144,11.932 4.026,11.599 8.596,29.689c1.829,7.24 1.833,7.209 1.991,7.836c13.829,54.971 16.177,54.197 17.942,58.974c2.399,6.493 -3.975,7.205 -5.515,6.542c-0.976,-0.42 -5.423,-8.004 -26.566,-31.221c-6.384,-7.011 -40.173,-44.114 -75.518,-91.352c-5.873,-7.849 -5.368,-10.842 -11.481,-9.918c-2.297,0.347 -1.601,1.156 -1.674,3.491c-0.168,5.342 -4.508,44.733 -4.177,55.18c0.155,4.877 1.865,5.802 -2.103,8.609c-3.645,2.579 -6.173,-1.274 -6.467,-1.721c-1.491,-2.273 -1.07,-3.839 -9.376,-15.626c-20.326,-28.847 -51.411,-83.246 -55.168,-91.004c-2.879,-5.945 -1.625,-8.76 -8.153,-8.102c-3.326,0.335 -6.209,7.071 -13.163,15.905c-13.849,17.592 -16.726,22 -20.969,18.384c-1.858,-1.583 -2.626,-2.239 -13.924,-27.149c-11.48,-25.313 -25.265,-70.083 -28.444,-72.306c-5.22,-3.651 -28.263,7.005 -44.371,7.322c-10.44,0.205 -10.845,-5.697 -15.348,-26.097c-6.056,-27.438 -5.94,-54.091 -9.48,-58.18c-4.532,-5.234 -20.435,-4.417 -50.547,-15.584c-8.563,-3.175 -16.721,-4.324 -15.724,-17.551c2.816,-37.357 13.718,-50.964 6.161,-56.381c-2.063,-1.479 -37.442,-19.972 -65.989,-42.505c-8.579,-6.772 -9.836,-9.053 -2.945,-17.573c8.443,-10.44 18.631,-20.244 22.248,-23.757c7.509,-7.293 0.888,-10.667 -8.854,-19.503c-37.202,-33.74 -65.655,-65.242 -69.028,-68.904c-0.43,-0.467 -4.098,-4.45 1.657,-7.766c0.157,-0.091 26.545,-3.44 28.855,-3.733c17.528,-2.225 20.878,0.518 20.963,-5.735c0.054,-3.99 -1.398,-3.437 -15.988,-21.639c-27.968,-34.892 -55.129,-75.576 -59.645,-82.34c-8.754,-13.113 -14.321,-16.229 -11.036,-20.155c3.192,-3.815 4.96,0.869 40.994,14.477c1.277,0.482 1.217,0.429 15.981,5.995c8.146,3.071 15.529,7.276 16.838,7.319c0.651,0.021 3.843,-2.982 3.891,-3.695c0.212,-3.12 -2.166,-2.176 -19.611,-33.818c-51.023,-92.544 -46.741,-94.778 -64.349,-124.14c-0.398,-0.664 -4.17,-6.954 -4.029,-8.806c0.095,-1.243 3.976,-4.072 4.88,-3.775c4.496,1.476 1.455,5.327 44.496,38.968c1.25,0.977 29.313,23.728 31.861,25.793c13.832,11.213 12.737,12.518 15.526,13.79c0.153,0.07 6.268,-0.282 6.328,-0.361c2.391,-3.096 -2.117,-2.804 -17.462,-45.676c-45.138,-126.105 -40.649,-127.535 -54.051,-162.434c-0.76,-1.98 -5.74,-13.767 -4.598,-15.725c1.886,-3.235 6.472,-0.461 6.948,-0.174c1.008,0.61 8.843,16.935 28.928,41.724c0.969,1.196 29.675,38.714 38.377,49.299c29.054,35.343 33.821,42.85 36.364,46.856c1.824,2.872 1.969,2.663 4.063,5.302c0.452,0.57 0.357,1.7 1.053,1.911c1.128,0.343 2.321,-0.468 3.498,-0.528c0.89,-0.045 2.096,0.9 2.666,0.214c0.6,-0.721 -5.942,-23.343 -7.859,-36.488c-1.516,-10.394 -7.913,-39.696 -18.733,-116.998c-6.983,-49.89 -6.161,-49.937 -12.464,-99.969c-0.689,-5.468 -6.129,-25.593 -3.265,-27.883c0.671,-0.536 1.684,0.386 2.542,0.418c0.936,0.035 2.01,-0.719 2.801,-0.218c0.826,0.523 6.109,17.201 13.237,32.227c50.47,106.38 85.545,168.075 95.138,192.277c1.877,4.736 0.457,6.836 5.539,7.042c6.933,0.282 1.985,-4.323 4.121,-41.31c4.21,-72.926 3.41,-72.888 9.518,-145.723c7.621,-90.866 11.275,-94.015 11.97,-129.168c0.106,-5.343 -1.671,-7.676 3.664,-8.004c1.229,-0.075 2.664,-0.775 3.692,-0.098c2.192,1.444 0.911,13.668 11.001,50.153c2.456,8.88 1.62,9.046 28.365,111.623c2.296,8.808 36.433,137.298 37.624,141.593c1.753,6.322 2.791,15.587 3.562,16.405c0.633,0.672 5.943,0.916 6.766,0.252c2.934,-2.363 -1.374,-4.255 14.639,-44.759c14.872,-37.619 13.529,-38.081 33.857,-88.896c9.066,-22.664 8.599,-22.792 17.788,-45.413c28.432,-69.99 40.351,-95.096 47.284,-111.896c2.632,-6.379 6.944,-14.577 10.748,-25.892c0.792,-2.354 1.245,-4.83 2.235,-7.108c0.414,-0.951 1.39,-1.558 1.919,-2.45c0.468,-0.79 0.205,-2.177 1.044,-2.551c0.85,-0.379 4.169,0.022 4.529,0.065c1.171,0.142 0.95,0.597 2.046,0.729l-202.037,321.881c-1.223,0.922 -2.445,1.845 -3.668,2.767c1.718,60.322 -1.502,60.197 -2.165,120.637c-0.422,38.44 -1.895,38.397 0.44,66.622c0.447,5.399 2.188,7.865 -3.203,7.978c-3.228,0.068 -3.634,0.041 -4.908,-2.93c-19.979,-46.592 -59.642,-110.382 -78.229,-159.24c-1.525,-4.007 -2.098,-3.603 -3.657,-5.574c-0.444,-0.561 -0.321,-1.712 -1.014,-1.892c-0.779,-0.202 -4.666,2.058 -4.856,2.807c-0.532,2.102 2.247,11.841 2.535,12.849c10.947,38.359 18.807,88.687 27.274,125.329c10.512,45.493 14,45.816 11.404,48.879c-4.219,4.98 -10.504,-6.352 -11.017,-7.275c-5.244,-9.455 -24.413,-32.174 -52.582,-67.907c-20.873,-26.478 -20.983,-29.999 -29.853,-41.894c-3.667,-4.918 -5.753,-7.972 -8.379,-2.419c-0.539,1.139 -0.359,2.58 0.028,3.779c0.409,1.265 5.821,11.93 6.344,12.96c15.623,30.785 38.557,99.099 59.729,137.041c2.429,4.354 3.942,5.644 -0.401,8.05c-1.123,0.622 -2.694,0.498 -3.85,-0.059c-1.724,-0.83 -2.887,-2.516 -4.262,-3.847c-20.151,-19.5 -20.916,-18.517 -42.406,-36.587c-36.287,-30.512 -34.952,-37.345 -40.571,-33.324c-0.976,0.699 -1.595,2.033 -1.585,3.234c0.017,2.069 6.462,10.723 7.112,11.596c14.415,19.357 41.588,66.618 53.22,83.809c15.799,23.351 16.312,22.964 17.499,25.105c2.504,4.515 3.285,6.279 -1.687,7.787c-2.09,0.634 -4.084,-3.216 -24.674,-12.204c-43.805,-19.124 -42.412,-21.911 -46.355,-23.194c-4.731,-1.54 -4.836,2.312 -4.848,2.758c-0.147,5.411 1.24,4.955 5.219,8.496c15.362,13.674 54.96,63.252 71.645,78.537c0.579,0.53 6.203,5.682 3.341,9.224c-1.383,1.712 -1.863,0.826 -20.979,0.471c-31.269,-0.581 -31.171,-2.361 -33.849,-1.933c-4.831,0.771 -3.902,5.019 -3.787,5.544c0.437,1.996 1.087,1.536 7.178,5.391c1.069,0.676 56.877,44.252 60.889,47.011c2.561,1.762 16.791,7.528 3.838,15.521c-4.034,2.489 -4.037,2.305 -8.125,4.72c-2.756,1.628 -2.476,2.007 -9.655,6.178c-1.049,0.61 -0.975,0.691 -12.879,8.021c-0.564,0.347 -5.69,3.503 -2.494,7.899c0.002,0.003 -0,0.001 23.337,10.589c43.047,19.531 45.931,17.803 46.348,23.784c0.146,2.091 0.179,2.563 -9.913,24.255c-1.987,4.272 -1.937,4.225 -3.878,8.483c-2.907,6.38 -8.1,15.837 -5.003,19.624c3.054,3.735 4.03,2.005 35.402,3.873c19.146,1.14 24.099,0.263 25.53,6.143c0.325,1.337 -1.398,39.448 -1.088,62.667c0.16,11.964 6.325,8.854 16.626,2.84c4.025,-2.35 4.057,-2.176 8.199,-4.407c8.687,-4.679 20.127,-13.623 24.634,-9.791c1.416,1.204 3.556,10.716 3.772,11.673c11.706,52.021 13.939,52.493 17.684,70.706c0.989,4.809 -0.198,6.868 4.743,6.853c4.653,-0.014 3.6,-1.899 5.46,-6.191c5.252,-12.113 13.875,-28.154 16.029,-33.883c0.322,-0.857 6.086,-16.183 11.441,-0.156c5.276,15.793 33.468,68.362 42.076,91.468c1.181,3.17 1.4,2.963 3.643,5.415c0.43,0.471 0.435,1.705 1.063,1.591c1.559,-0.285 3.122,-1.225 4.032,-2.523c2.25,-3.209 -1.226,-3.708 -0.31,-37.809c0.393,-14.633 0.243,-14.551 -0.334,-29.207c-0.31,-7.864 4.624,-10.79 8.161,-3.763c13.482,26.785 42.166,59.238 70.298,104.687c1.864,3.012 2.281,2.556 4.542,5.362c0.42,0.522 0.017,2.079 0.662,1.897c0,-0 5.694,-3.547 6.189,-3.856c-2.924,-7.567 -2.896,-7.522 -3.158,-8.172c-16.451,-40.912 -11.203,-42.601 -26.804,-83.904c-0.261,-0.691 -3.468,-9.182 2.878,-8.766c3.125,0.205 8.062,7.925 8.591,8.752c8.225,12.86 84.933,85.65 95.472,100.373c11.292,15.774 15.006,9.402 15.277,8.048c0.58,-2.893 -13.14,-21.868 -17.877,-29.721c-3.399,-5.635 -25.456,-46.445 -26.76,-49.092c-21.495,-43.669 -25.604,-41.829 -25.598,-46.043c0.007,-4.68 4.49,-4.023 4.994,-3.949c2.938,0.431 2.377,1.365 4.542,3.408c20.462,19.3 87.106,63.57 111.356,80.99c12.978,9.323 25.293,19.796 25.596,20.025c11.256,8.518 11.325,0.872 11.274,-0.029c-0.012,-0.211 -4.431,-5.938 -7.157,-8.516c-14.025,-13.263 -13.63,-13.548 -29.877,-32.729c-1.818,-2.146 -13.861,-16.364 -22.447,-27.054c-29.278,-36.454 -29.199,-36.456 -31.765,-39.605c-20.436,-25.074 -21.663,-23.952 -23.294,-26.236c-0.339,-0.474 -3.517,-4.923 -0.342,-7.272c3.477,-2.572 3.708,-0.026 16.679,6.786c12.716,6.678 100.312,42.639 124.14,52.182c26.039,10.428 25.026,12.757 38.26,17.041c4.085,1.322 5.957,2.551 6.221,-1.683c0.278,-4.46 -1.756,-3.585 -21.983,-17.952c-16.127,-11.456 -55.243,-44.159 -59.961,-48.104c-41.822,-34.967 -42.084,-34.613 -45.698,-37.677c-26.738,-22.668 -36.726,-28.615 -37,-29.636c-1.309,-4.863 2.844,-5.556 3.363,-5.643c1.36,-0.227 8.249,1.442 8.956,1.613c7.605,1.842 18.195,2.442 29.212,3.75c2.744,0.326 5.486,0.67 8.232,0.979c3.275,0.369 96.067,8.768 99.941,9.034c42.204,2.903 42.049,6.792 45.465,5.469c0.364,-0.141 2.945,-5.132 2.878,-5.597c-0.18,-1.258 -18.075,-7.739 -19.598,-8.385c-14.626,-6.206 -14.331,-6.647 -28.891,-13.08c-1.291,-0.57 -64.972,-30.832 -100.658,-48.675c-47.341,-23.671 -48.172,-21.902 -52.111,-24.276c-0.961,-0.579 -1.889,-5.185 -0.934,-6.602c0.109,-0.161 54.925,-16.139 141.243,-46.632c34.461,-12.174 35.904,-9.31 37.648,-11.945c2.185,-3.3 1.338,-3.988 -2.085,-5.98c-4.619,-2.688 -4.949,-1.231 -10.461,-1.317c-14.656,-0.227 -77.564,-9.683 -87.155,-10.808c-6.368,-0.747 -40.773,-4.783 -79.415,-10.794c-31.44,-4.89 -34.972,-2.086 -35.114,-8.313c-0.063,-2.776 5.564,-7.804 6.184,-8.359c2.263,-2.022 2.087,-2.069 4.116,-4.214c43.462,-45.949 57.52,-61.317 62.454,-66.712c28.862,-31.553 39.293,-42.182 40.107,-43.073c9.201,-10.067 9.831,-9.324 19.19,-19.127c2.774,-2.905 1.344,-3.42 -0.357,-5.357c-0.436,-0.497 -0.276,-1.673 -0.933,-1.75c-0.915,-0.106 -7.416,2.538 -8.048,2.795c-1.954,0.795 -13.361,5.435 -24.863,8.777c-38.246,11.113 -106.939,32.18 -112.385,33.695c-39.335,10.942 -38.602,13.286 -42.132,13.556c-1.49,0.114 -2.991,-1.032 -3.895,-2.222c-0.844,-1.111 -1.1,-2.708 -0.9,-4.089c0.391,-2.693 1.741,-5.157 2.615,-7.735c4.208,-12.418 51.849,-165.513 55.815,-175.781c5.674,-14.688 9.815,-16.299 4.301,-19.478c-4.476,-2.581 -3.804,1.343 -18.965,16.862c-47.367,48.483 -48.427,47.334 -95.577,96.025c-19.608,20.249 -18.665,22.254 -22.426,22.101c-5.18,-0.211 -2.957,-8.008 -3.291,-19.5c-2.678,-91.982 -2.55,-91.929 -2.885,-99.919c-1.138,-27.143 -0.776,-27.053 -1.44,-54.234c-1.206,-49.325 3.111,-49.505 1.374,-53.41c-0.248,-0.558 -5.218,-1.582 -6.425,-0.998c-0.896,0.433 -0.701,1.87 -1.18,2.741c-1.576,2.865 -1.703,2.754 -2.491,5.989c-3.596,14.758 -3.966,14.582 -9.169,28.829c-20.586,56.367 -20.554,56.309 -40.802,112.818c-6.598,18.413 -9.713,32.471 -9.736,32.5c-0.347,0.435 -3.042,3.814 -6.947,0.42c-0.939,-0.816 -1.573,-8.671 -6.035,-24.253c-34.074,-118.984 -33.563,-119.118 -36.556,-129.455c-7.218,-24.935 -11.501,-53.134 -12.603,-53.717c-1.008,-0.534 -2.276,1.499 -3.284,0.964l202.037,-321.881Z" style="fill:#59A847;fill-opacity:1;"/></g></svg>